<mxfile host="app.diagrams.net" modified="2020-04-26T04:38:06.623Z" agent="5.0 (Macintosh; Intel Mac OS X 10_15_4) AppleWebKit/605.1.15 (KHTML, like Gecko) Version/13.1 Safari/605.1.15" etag="nmRANcomOunVOLZSzj-p" version="13.0.1" type="github">
  <diagram id="n-LaUe6rCVLpThtM2G4v" name="Page-1">
    <mxGraphModel dx="1700" dy="1190" grid="1" gridSize="10" guides="1" tooltips="1" connect="1" arrows="1" fold="1" page="1" pageScale="1" pageWidth="827" pageHeight="1169" math="0" shadow="0">
      <root>
        <mxCell id="0" />
        <mxCell id="1" parent="0" />
        <mxCell id="6K44VxC3NeTdze0Nqsje-1" value="&lt;font&gt;&lt;b&gt;&lt;font&gt;&lt;span style=&quot;font-size: 72px&quot;&gt;காமத்துப்பால்&lt;/span&gt;&lt;br&gt;&lt;font style=&quot;font-size: 24px&quot;&gt;(25)&lt;/font&gt;&lt;/font&gt;&lt;br&gt;&lt;/b&gt;&lt;/font&gt;" style="ellipse;whiteSpace=wrap;html=1;shadow=0;fontFamily=Helvetica;fontSize=20;fontColor=#FFFFFF;align=center;strokeWidth=3;fillColor=#736ca8;strokeColor=none;" vertex="1" parent="1">
          <mxGeometry x="1570" y="540" width="460" height="320" as="geometry" />
        </mxCell>
        <mxCell id="6K44VxC3NeTdze0Nqsje-2" value="&lt;font&gt;&lt;b&gt;&lt;font&gt;&lt;span style=&quot;font-size: 72px&quot;&gt;பொருட்பால்&lt;/span&gt;&lt;br&gt;&lt;font style=&quot;font-size: 24px&quot;&gt;(70)&lt;/font&gt;&lt;/font&gt;&lt;br&gt;&lt;/b&gt;&lt;/font&gt;" style="ellipse;whiteSpace=wrap;html=1;shadow=0;fontFamily=Helvetica;fontSize=20;fontColor=#FFFFFF;align=center;strokeWidth=3;fillColor=#F08705;strokeColor=none;" vertex="1" parent="1">
          <mxGeometry x="988.5" y="540" width="492.5" height="320" as="geometry" />
        </mxCell>
        <mxCell id="6K44VxC3NeTdze0Nqsje-3" value="&lt;b&gt;&lt;font&gt;&lt;font&gt;&lt;span style=&quot;font-size: 72px&quot;&gt;அறத்துப்பால்&lt;br&gt;&lt;/span&gt;&lt;font style=&quot;font-size: 24px&quot;&gt;(38)&lt;/font&gt;&lt;/font&gt;&lt;br&gt;&lt;/font&gt;&lt;/b&gt;" style="ellipse;whiteSpace=wrap;html=1;shadow=0;fontFamily=Helvetica;fontSize=20;fontColor=#FFFFFF;align=center;strokeWidth=3;fillColor=#E85642;strokeColor=none;" vertex="1" parent="1">
          <mxGeometry x="400" y="525" width="510" height="350" as="geometry" />
        </mxCell>
        <mxCell id="6K44VxC3NeTdze0Nqsje-4" style="endArrow=none;strokeWidth=6;strokeColor=#736ca8;html=1;" edge="1" parent="1" source="6K44VxC3NeTdze0Nqsje-21" target="6K44VxC3NeTdze0Nqsje-1">
          <mxGeometry relative="1" as="geometry" />
        </mxCell>
        <mxCell id="6K44VxC3NeTdze0Nqsje-5" value="" style="edgeStyle=none;endArrow=none;strokeWidth=6;strokeColor=#F08705;html=1;" edge="1" parent="1" source="6K44VxC3NeTdze0Nqsje-21" target="6K44VxC3NeTdze0Nqsje-2">
          <mxGeometry x="181" y="226.5" width="100" height="100" as="geometry">
            <mxPoint x="181" y="326.5" as="sourcePoint" />
            <mxPoint x="281" y="226.5" as="targetPoint" />
          </mxGeometry>
        </mxCell>
        <mxCell id="6K44VxC3NeTdze0Nqsje-6" value="" style="edgeStyle=none;endArrow=none;strokeWidth=6;strokeColor=#E85642;html=1;" edge="1" parent="1" source="6K44VxC3NeTdze0Nqsje-21" target="6K44VxC3NeTdze0Nqsje-3">
          <mxGeometry x="181" y="226.5" width="100" height="100" as="geometry">
            <mxPoint x="181" y="326.5" as="sourcePoint" />
            <mxPoint x="281" y="226.5" as="targetPoint" />
          </mxGeometry>
        </mxCell>
        <mxCell id="6K44VxC3NeTdze0Nqsje-7" value="&lt;font&gt;&lt;font&gt;&lt;b&gt;&lt;span style=&quot;font-size: 48px&quot;&gt;கற்பியல்&lt;/span&gt;&lt;font style=&quot;font-size: 24px&quot;&gt;&lt;br&gt;(18)&lt;/font&gt;&lt;/b&gt;&lt;/font&gt;&lt;br&gt;&lt;/font&gt;" style="rounded=1;fillColor=#a29dc5;strokeColor=none;strokeWidth=3;shadow=0;html=1;fontColor=#FFFFFF;" vertex="1" parent="1">
          <mxGeometry x="1900" y="1210" width="250" height="143.5" as="geometry" />
        </mxCell>
        <mxCell id="6K44VxC3NeTdze0Nqsje-8" value="&lt;b&gt;&lt;span style=&quot;font-size: 48px&quot;&gt;களவியல்&lt;/span&gt;&lt;br&gt;&lt;font style=&quot;font-size: 24px&quot;&gt;(7)&lt;/font&gt;&lt;/b&gt;" style="rounded=1;fillColor=#a29dc5;strokeColor=none;strokeWidth=3;shadow=0;html=1;fontColor=#FFFFFF;" vertex="1" parent="1">
          <mxGeometry x="1570" y="1196.25" width="269" height="150" as="geometry" />
        </mxCell>
        <mxCell id="6K44VxC3NeTdze0Nqsje-9" value="" style="edgeStyle=none;endArrow=none;strokeWidth=3;strokeColor=#A29DC5;html=1;" edge="1" parent="1" source="6K44VxC3NeTdze0Nqsje-1" target="6K44VxC3NeTdze0Nqsje-7">
          <mxGeometry x="251" y="-103.5" width="100" height="100" as="geometry">
            <mxPoint x="251" y="-3.5" as="sourcePoint" />
            <mxPoint x="351" y="-103.5" as="targetPoint" />
          </mxGeometry>
        </mxCell>
        <mxCell id="6K44VxC3NeTdze0Nqsje-10" value="" style="edgeStyle=none;endArrow=none;strokeWidth=3;strokeColor=#A29DC5;html=1;" edge="1" parent="1" source="6K44VxC3NeTdze0Nqsje-1" target="6K44VxC3NeTdze0Nqsje-8">
          <mxGeometry x="251" y="-103.5" width="100" height="100" as="geometry">
            <mxPoint x="251" y="-3.5" as="sourcePoint" />
            <mxPoint x="351" y="-103.5" as="targetPoint" />
          </mxGeometry>
        </mxCell>
        <mxCell id="6K44VxC3NeTdze0Nqsje-11" value="&lt;font color=&quot;#ffffff&quot;&gt;&lt;b&gt;&lt;span style=&quot;font-size: 48px&quot;&gt;அங்கவியல்&lt;/span&gt;&lt;br&gt;&lt;font style=&quot;font-size: 24px&quot;&gt;(32)&lt;/font&gt;&lt;br&gt;&lt;/b&gt;&lt;/font&gt;" style="rounded=1;fillColor=#f5af58;strokeColor=none;strokeWidth=3;shadow=0;html=1;fontColor=#FFFFFF;" vertex="1" parent="1">
          <mxGeometry x="1150" y="1220" width="271" height="170" as="geometry" />
        </mxCell>
        <mxCell id="6K44VxC3NeTdze0Nqsje-12" value="&lt;font&gt;&lt;b&gt;&lt;span style=&quot;font-size: 48px&quot;&gt;அரசியல்&lt;/span&gt;&lt;br&gt;&lt;font style=&quot;font-size: 24px&quot;&gt;(25)&lt;/font&gt;&lt;br&gt;&lt;/b&gt;&lt;/font&gt;" style="rounded=1;fillColor=#f5af58;strokeColor=none;strokeWidth=3;shadow=0;html=1;fontColor=#FFFFFF;" vertex="1" parent="1">
          <mxGeometry x="900" y="1036.25" width="240" height="173.75" as="geometry" />
        </mxCell>
        <mxCell id="6K44VxC3NeTdze0Nqsje-13" value="" style="edgeStyle=none;endArrow=none;strokeWidth=3;strokeColor=#F5AF58;html=1;" edge="1" parent="1" source="6K44VxC3NeTdze0Nqsje-2" target="6K44VxC3NeTdze0Nqsje-11">
          <mxGeometry x="140" y="-102" width="100" height="100" as="geometry">
            <mxPoint x="140" y="-2" as="sourcePoint" />
            <mxPoint x="240" y="-102" as="targetPoint" />
          </mxGeometry>
        </mxCell>
        <mxCell id="6K44VxC3NeTdze0Nqsje-14" value="" style="edgeStyle=none;endArrow=none;strokeWidth=3;strokeColor=#F5AF58;html=1;" edge="1" parent="1" source="6K44VxC3NeTdze0Nqsje-2" target="6K44VxC3NeTdze0Nqsje-12">
          <mxGeometry x="140" y="-102" width="100" height="100" as="geometry">
            <mxPoint x="140" y="-2" as="sourcePoint" />
            <mxPoint x="240" y="-102" as="targetPoint" />
          </mxGeometry>
        </mxCell>
        <mxCell id="6K44VxC3NeTdze0Nqsje-15" value="&lt;font&gt;&lt;b&gt;&lt;span style=&quot;font-size: 48px&quot;&gt;பாயிரவியல்&lt;/span&gt;&lt;br&gt;&lt;font style=&quot;font-size: 24px&quot;&gt;(4)&lt;/font&gt;&lt;br&gt;&lt;/b&gt;&lt;/font&gt;" style="rounded=1;fillColor=#f08e81;strokeColor=none;strokeWidth=3;shadow=0;html=1;fontColor=#FFFFFF;" vertex="1" parent="1">
          <mxGeometry x="100" y="980" width="250" height="180" as="geometry" />
        </mxCell>
        <mxCell id="6K44VxC3NeTdze0Nqsje-16" value="&lt;font&gt;&lt;b&gt;&lt;span style=&quot;font-size: 48px&quot;&gt;இல்லறவியல்&lt;/span&gt;&lt;font style=&quot;font-size: 24px&quot;&gt;&lt;br&gt;(20)&lt;/font&gt;&lt;/b&gt;&lt;br&gt;&lt;/font&gt;" style="rounded=1;fillColor=#f08e81;strokeColor=none;strokeWidth=3;shadow=0;html=1;fontColor=#FFFFFF;" vertex="1" parent="1">
          <mxGeometry x="100" y="1230" width="300" height="160" as="geometry" />
        </mxCell>
        <mxCell id="6K44VxC3NeTdze0Nqsje-17" value="&lt;b&gt;&lt;span style=&quot;font-size: 48px&quot;&gt;துறவறவியல்&lt;/span&gt;&lt;br&gt;&lt;font style=&quot;font-size: 24px&quot;&gt;(13)&lt;/font&gt;&lt;br&gt;&lt;/b&gt;" style="rounded=1;fillColor=#f08e81;strokeColor=none;strokeWidth=3;shadow=0;html=1;fontColor=#FFFFFF;" vertex="1" parent="1">
          <mxGeometry x="440" y="1036.25" width="310" height="160" as="geometry" />
        </mxCell>
        <mxCell id="6K44VxC3NeTdze0Nqsje-18" value="" style="edgeStyle=none;endArrow=none;strokeWidth=3;strokeColor=#F08E81;html=1;" edge="1" parent="1" source="6K44VxC3NeTdze0Nqsje-3" target="6K44VxC3NeTdze0Nqsje-15">
          <mxGeometry x="-80" y="-135" width="100" height="100" as="geometry">
            <mxPoint x="-80" y="-35" as="sourcePoint" />
            <mxPoint x="20" y="-135" as="targetPoint" />
          </mxGeometry>
        </mxCell>
        <mxCell id="6K44VxC3NeTdze0Nqsje-19" value="" style="edgeStyle=none;endArrow=none;strokeWidth=3;strokeColor=#F08E81;html=1;" edge="1" parent="1" source="6K44VxC3NeTdze0Nqsje-3" target="6K44VxC3NeTdze0Nqsje-16">
          <mxGeometry x="-80" y="-135" width="100" height="100" as="geometry">
            <mxPoint x="-80" y="-35" as="sourcePoint" />
            <mxPoint x="20" y="-135" as="targetPoint" />
          </mxGeometry>
        </mxCell>
        <mxCell id="6K44VxC3NeTdze0Nqsje-20" value="" style="edgeStyle=none;endArrow=none;strokeWidth=3;strokeColor=#F08E81;html=1;" edge="1" parent="1" source="6K44VxC3NeTdze0Nqsje-3" target="6K44VxC3NeTdze0Nqsje-17">
          <mxGeometry x="-80" y="-135" width="100" height="100" as="geometry">
            <mxPoint x="-80" y="-35" as="sourcePoint" />
            <mxPoint x="20" y="-135" as="targetPoint" />
          </mxGeometry>
        </mxCell>
        <mxCell id="6K44VxC3NeTdze0Nqsje-21" value="&lt;font&gt;&lt;font&gt;&lt;span style=&quot;font-size: 84px&quot;&gt;திருக்குறள்&lt;/span&gt;&lt;br&gt;&lt;font style=&quot;font-size: 36px&quot;&gt;(133)&lt;/font&gt;&lt;/font&gt;&lt;br&gt;&lt;/font&gt;" style="ellipse;whiteSpace=wrap;html=1;shadow=0;fontFamily=Helvetica;fontSize=30;fontColor=#2F5B7C;align=center;strokeColor=#2F5B7C;strokeWidth=6;fillColor=#FFFFFF;fontStyle=1;gradientColor=none;" vertex="1" parent="1">
          <mxGeometry x="1010" y="50" width="445" height="400" as="geometry" />
        </mxCell>
        <mxCell id="6K44VxC3NeTdze0Nqsje-22" value="&lt;font color=&quot;#ffffff&quot;&gt;&lt;b&gt;&lt;span style=&quot;font-size: 48px&quot;&gt;ஒழிபியல்&lt;/span&gt;&lt;br&gt;&lt;font style=&quot;font-size: 24px&quot;&gt;(13)&lt;/font&gt;&lt;br&gt;&lt;/b&gt;&lt;/font&gt;" style="rounded=1;fillColor=#f5af58;strokeColor=none;strokeWidth=3;shadow=0;html=1;fontColor=#FFFFFF;" vertex="1" parent="1">
          <mxGeometry x="1380" y="1013.5" width="271" height="160" as="geometry" />
        </mxCell>
        <mxCell id="6K44VxC3NeTdze0Nqsje-23" value="" style="edgeStyle=none;endArrow=none;strokeWidth=3;strokeColor=#F5AF58;html=1;exitX=0.731;exitY=0.944;exitDx=0;exitDy=0;exitPerimeter=0;" edge="1" parent="1" source="6K44VxC3NeTdze0Nqsje-2" target="6K44VxC3NeTdze0Nqsje-22">
          <mxGeometry x="439" y="-92" width="100" height="100" as="geometry">
            <mxPoint x="1310.0769786860087" y="869.1847456926407" as="sourcePoint" />
            <mxPoint x="539" y="-92" as="targetPoint" />
          </mxGeometry>
        </mxCell>
        <mxCell id="6K44VxC3NeTdze0Nqsje-24" value="&lt;b&gt;&lt;span style=&quot;font-size: 48px&quot;&gt;ஊழியல்&lt;/span&gt;&lt;font style=&quot;font-size: 24px&quot;&gt;&lt;br&gt;(1)&lt;/font&gt;&lt;br&gt;&lt;/b&gt;" style="rounded=1;fillColor=#f08e81;strokeColor=none;strokeWidth=3;shadow=0;html=1;fontColor=#FFFFFF;" vertex="1" parent="1">
          <mxGeometry x="710" y="1240.9999999999998" width="310" height="160" as="geometry" />
        </mxCell>
        <mxCell id="6K44VxC3NeTdze0Nqsje-25" value="" style="edgeStyle=none;endArrow=none;strokeWidth=3;strokeColor=#F08E81;html=1;" edge="1" parent="1" source="6K44VxC3NeTdze0Nqsje-3" target="6K44VxC3NeTdze0Nqsje-24">
          <mxGeometry x="110" y="95.13999999999999" width="100" height="100" as="geometry">
            <mxPoint x="845.0332083676617" y="1130.0044886935361" as="sourcePoint" />
            <mxPoint x="210" y="95.13999999999999" as="targetPoint" />
          </mxGeometry>
        </mxCell>
      </root>
    </mxGraphModel>
  </diagram>
</mxfile>
